HIERARCHY
ROOT Hips
{
	OFFSET 0.00000 0.00000 0.00000
	CHANNELS 6 Xposition Yposition Zposition Zrotation Yrotation Xrotation 
	JOINT LHipJoint
	{
		OFFSET 0 0 0
		CHANNELS 3 Zrotation Yrotation Xrotation
		JOINT LeftHip
		{
			OFFSET 1.52977 -1.71332 0.88991
			CHANNELS 3 Zrotation Yrotation Xrotation
			JOINT LeftKnee
			{
				OFFSET 2.23949 -6.15296 0.00000
				CHANNELS 3 Zrotation Yrotation Xrotation
				JOINT LeftAnkle
				{
					OFFSET 2.68396 -7.37412 0.00000
					CHANNELS 3 Zrotation Yrotation Xrotation
					JOINT LeftToe
					{
						OFFSET 0.20538 -0.56428 2.52710
						CHANNELS 3 Zrotation Yrotation Xrotation
						End Site
						{
							OFFSET 0.00000 -0.00000 1.29919
						}
					}
				}
			}
		}
	}
	JOINT RHipJoint
	{
		OFFSET 0 0 0
		CHANNELS 3 Zrotation Yrotation Xrotation
		JOINT RightHip
		{
			OFFSET -1.45689 -1.71333 0.88991
			CHANNELS 3 Zrotation Yrotation Xrotation
			JOINT RightKnee
			{
				OFFSET -2.36700 -6.50329 0.00000
				CHANNELS 3 Zrotation Yrotation Xrotation
				JOINT RightAnkle
				{
					OFFSET -2.69814 -7.41308 0.00000
					CHANNELS 3 Zrotation Yrotation Xrotation
					JOINT RightToe
					{
						OFFSET -0.18734 -0.51471 2.37479
						CHANNELS 3 Zrotation Yrotation Xrotation
						End Site
						{
							OFFSET -0.00000 -0.00000 1.22113
						}
					}
				}
			}
		}
	}
	JOINT lowerback
	{
		OFFSET 0 0 0
		CHANNELS 3 Zrotation Yrotation Xrotation
		JOINT Chest
		{
			OFFSET 0.04294 2.14638 -0.31163
			CHANNELS 3 Zrotation Yrotation Xrotation
			JOINT Chest2
			{
				OFFSET -0.00400 2.17216 0.01486
				CHANNELS 3 Zrotation Yrotation Xrotation
				JOINT lowerneck
				{
					OFFSET 0 0 0
					CHANNELS 3 Zrotation Yrotation Xrotation
					JOINT Neck
					{
						OFFSET 0.03869 1.76598 0.14916
						CHANNELS 3 Zrotation Yrotation Xrotation
						JOINT Head
						{
							OFFSET -0.00760 1.75513 -0.18948
							CHANNELS 3 Zrotation Yrotation Xrotation
							End Site
							{
								OFFSET -0.00601 1.82444 -0.08310
							}
						}
					}
				}
				JOINT LeftCollar
				{
					OFFSET 0 0 0
					CHANNELS 3 Zrotation Yrotation Xrotation
					JOINT LeftShoulder
					{
						OFFSET 3.73696 0.92058 0.01733
CHANNELS 3 Zrotation Xrotation Yrotation
						JOINT LeftElbow
						{
OFFSET 0 -5.227710 0.000000
CHANNELS 3 Zrotation Xrotation Yrotation
							JOINT LeftWrist
							{
OFFSET 0 -3.452510 0.000000
CHANNELS 3 Zrotation Xrotation Yrotation
								JOINT lhand
								{
									OFFSET 0 0 0
CHANNELS 3 Zrotation Xrotation Yrotation
									JOINT LFingers
									{
OFFSET 0 -0.552120 0.000000
CHANNELS 3 Zrotation Xrotation Yrotation
										End Site
										{
OFFSET 0 -0.445130 0.000000
										}
									}
								}
								JOINT LThumb
								{
OFFSET 0 0.000000 0.000000
CHANNELS 3 Zrotation Xrotation Yrotation
									End Site
									{
OFFSET 0 -0.451930 0.451930
									}
								}
							}
						}
					}
				}
				JOINT RightCollar
				{
					OFFSET 0 0 0
					CHANNELS 3 Zrotation Yrotation Xrotation
					JOINT RightShoulder
					{
						OFFSET -3.63819 0.83094 -0.13694
CHANNELS 3 Zrotation Xrotation Yrotation
						JOINT RightElbow
						{
OFFSET 0 -5.239800 -0.000000
CHANNELS 3 Zrotation Xrotation Yrotation
							JOINT RightWrist
							{
OFFSET 0 -3.480420 -0.000000
CHANNELS 3 Zrotation Xrotation Yrotation
								JOINT rhand
								{
									OFFSET 0 0 0
CHANNELS 3 Zrotation Xrotation Yrotation
									JOINT RFingers
									{
OFFSET 0 -0.618710 0.000000
CHANNELS 3 Zrotation Xrotation Yrotation
										End Site
										{
OFFSET 0 -0.498820 0.000000
										}
									}
								}
								JOINT RThumb
								{
OFFSET 0 0.000000 0.000000
CHANNELS 3 Zrotation Xrotation Yrotation
									End Site
									{
OFFSET 0 -0.506440 0.506440
									}
								}
							}
						}
					}
				}
			}
		}
	}
}
MOTION
Frames: 12
Frame Time: 0.008333333333333333
-33.896500 15.466200 -5.986100 -0.163600 -86.480600 19.856600 0.000000 0.000000 0.000000 -10.799400 -12.446300 -58.868500 10.152500 17.494700 59.996700 1.243200 -4.122200 -20.117200 0.030700 -1.131700 -3.111200 0.000000 0.000000 0.000000 14.355400 14.683600 -61.290900 -12.437200 -18.569400 67.368000 -2.069500 -1.026500 -27.600500 -0.129800 -2.322400 6.397500 2.561000 -1.559600 29.966300 0.063800 -2.031500 9.004500 -0.675500 -1.286700 -6.375700 2.768400 0.802700 3.420500 0.653900 0.753800 -28.001300 -0.243400 -0.457300 -9.338000 -0.000000 -0.000000 0.000000 8.313400 -7.346700 -35.601400 27.546400 -38.695300 9.838800 20.742700 -23.028000 -12.978000 0.000000 0.000000 0.000000 -7.125000 0.000000 0.000000 -6.025600 43.741600 -0.187900 -0.000000 -0.000000 0.000000 -4.692200 -8.162600 36.381700 -33.890700 -44.003600 -14.037100 -19.815100 -5.995800 10.337800 0.000000 0.000000 0.000000 7.125000 0.000000 -0.000000 6.395500 40.870300 0.654400
-33.896260 15.468740 -5.986830 -0.007915 -86.498584 19.724584 0.000000 0.000000 0.000000 -10.797157 -12.473345 -58.860097 10.136939 17.486179 59.945266 1.242160 -4.076140 -20.115149 0.030730 -1.131295 -3.110156 0.000000 0.000000 0.000000 14.325025 14.744104 -61.284918 -12.425669 -18.564869 67.331876 -2.073460 -1.046335 -27.633750 -0.130859 -2.332115 6.424366 2.511997 -1.524222 29.959652 0.062090 -1.999161 8.986320 -0.660234 -1.270820 -6.391251 2.777207 0.789860 3.381891 0.577921 0.719960 -27.898941 -0.268939 -0.461129 -9.293795 0.000000 0.000000 0.000000 8.359076 -7.233435 -35.652244 27.811169 -38.941827 10.004822 20.653704 -23.142542 -13.065228 0.000000 0.000000 0.000000 -7.125000 0.000000 0.000000 -6.122607 43.823509 -0.178460 0.000000 0.000000 0.000000 -4.751223 -8.071797 36.385841 -33.885448 -43.999649 -14.033399 -19.787001 -5.975599 10.333682 0.000000 0.000000 0.000000 7.125000 0.000000 0.000000 6.419390 40.863213 0.657930
-33.895300 15.472540 -5.984660 -0.294624 -86.448915 20.020007 0.000000 0.000000 0.000000 -10.777720 -12.521906 -58.840059 10.121718 17.477699 59.894393 1.241060 -4.059876 -20.107819 0.028980 -1.099659 -3.022978 0.000000 0.000000 0.000000 14.352940 14.707278 -61.271841 -12.409878 -18.558619 67.282374 -2.072420 -1.094925 -27.644702 -0.127820 -2.304360 6.347661 2.563324 -1.532479 29.971120 0.060459 -1.993558 8.978939 -0.692924 -1.267879 -6.405962 2.756699 0.785158 3.295630 0.564756 0.706396 -27.794887 -0.269321 -0.459901 -9.240394 0.000000 0.000000 0.000000 8.422949 -7.166730 -35.696625 28.046397 -39.158874 10.153023 20.651895 -23.272818 -13.076704 0.000000 0.000000 0.000000 -7.125000 0.000000 0.000000 -6.126365 43.835383 -0.176780 0.000000 0.000000 0.000000 -4.787804 -8.021051 36.378093 -33.870279 -43.988339 -14.022859 -19.786098 -5.952191 10.357365 0.000000 0.000000 0.000000 7.125000 0.000000 0.000000 6.424063 40.888145 0.654440
-33.894310 15.474580 -5.983350 -0.250305 -86.420685 19.989847 0.000000 0.000000 0.000000 -10.783504 -12.549533 -58.832368 10.109518 17.471019 59.853772 1.239950 -4.046090 -20.100618 0.028770 -1.094379 -3.008598 0.000000 0.000000 0.000000 14.345407 14.699230 -61.275480 -12.400029 -18.554669 67.251195 -2.072940 -1.126606 -27.659725 -0.127860 -2.304751 6.348573 2.577060 -1.524337 29.969879 0.053708 -1.979206 8.973890 -0.713273 -1.260718 -6.411069 2.752650 0.776749 3.239730 0.536052 0.686286 -27.729730 -0.277072 -0.463361 -9.206694 0.000000 0.000000 0.000000 8.474711 -7.106506 -35.708936 28.279186 -39.371881 10.300296 20.627117 -23.372980 -13.099424 0.000000 0.000000 0.000000 -7.125000 0.000000 0.000000 -6.153194 43.856504 -0.174330 0.000000 0.000000 0.000000 -4.805232 -7.977913 36.328084 -33.861877 -43.982158 -14.017078 -19.765061 -5.872193 10.404066 0.000000 0.000000 0.000000 7.125000 0.000000 0.000000 6.450010 40.935336 0.649598
-33.893820 15.475440 -5.982340 -0.125267 -86.402056 19.867506 0.000000 0.000000 0.000000 -10.802288 -12.552397 -58.822017 10.101638 17.466579 59.827455 1.239040 -4.056787 -20.091477 0.028240 -1.084895 -2.982447 0.000000 0.000000 0.000000 14.333756 14.692877 -61.272858 -12.396140 -18.553120 67.239019 -2.074821 -1.146043 -27.679386 -0.128000 -2.306300 6.352919 2.569414 -1.511495 29.969022 0.047738 -1.965736 8.976802 -0.720300 -1.254198 -6.407058 2.745557 0.776841 3.203228 0.505531 0.677359 -27.695830 -0.285823 -0.462159 -9.187594 0.000000 0.000000 0.000000 8.511689 -7.042919 -35.676444 28.515275 -39.586248 10.450408 20.628805 -23.445499 -13.104603 0.000000 0.000000 0.000000 -7.125000 0.000000 0.000000 -6.152576 43.862084 -0.173499 0.000000 0.000000 0.000000 -4.808259 -7.959139 36.256654 -33.836087 -43.962930 -13.999171 -19.732348 -5.751801 10.464758 0.000000 0.000000 0.000000 7.125000 0.000000 0.000000 6.488594 40.995998 0.643778
-33.893200 15.475300 -5.981199 -0.012504 -86.386443 19.745449 0.000000 0.000000 0.000000 -10.824059 -12.543297 -58.812396 10.098349 17.464800 59.816548 1.238000 -4.084562 -20.078695 0.027250 -1.065842 -2.930129 0.000000 0.000000 0.000000 14.326147 14.679042 -61.263947 -12.396901 -18.553450 67.241453 -2.077801 -1.145247 -27.698807 -0.128350 -2.309702 6.362506 2.559648 -1.498996 29.979356 0.042297 -1.953697 8.983052 -0.724753 -1.248598 -6.404401 2.729342 0.779801 3.172741 0.485348 0.674499 -27.666738 -0.289850 -0.458349 -9.171394 0.000000 0.000000 0.000000 8.539712 -6.980926 -35.623577 28.736281 -39.785223 10.591552 20.655864 -23.505777 -13.106597 0.000000 0.000000 0.000000 -7.125000 0.000000 0.000000 -6.128487 43.867248 -0.172000 0.000000 0.000000 0.000000 -4.799593 -7.961703 36.170166 -33.778321 -43.919778 -13.959080 -19.701743 -5.645669 10.499352 0.000000 0.000000 0.000000 7.125000 0.000000 0.000000 6.521056 41.029552 0.641600
-33.892239 15.474820 -5.979499 0.109549 -86.368292 19.609124 0.000000 0.000000 0.000000 -10.846151 -12.539860 -58.803056 10.097060 17.464080 59.812238 1.237280 -4.111491 -20.068996 0.026420 -1.048913 -2.883360 0.000000 0.000000 0.000000 14.315612 14.660674 -61.256177 -12.399922 -18.554621 67.251006 -2.080841 -1.137197 -27.715909 -0.129060 -2.315801 6.379262 2.557780 -1.491677 29.994747 0.031633 -1.946277 8.988682 -0.737788 -1.245198 -6.405281 2.719738 0.775596 3.162739 0.484003 0.668156 -27.640507 -0.288338 -0.458802 -9.160295 0.000000 0.000000 0.000000 8.569094 -6.930278 -35.560708 28.920560 -39.950032 10.709712 20.687834 -23.578777 -13.101638 0.000000 0.000000 0.000000 -7.125000 0.000000 0.000000 -6.098507 43.865700 -0.171420 0.000000 0.000000 0.000000 -4.771662 -7.971425 36.086381 -33.698781 -43.860331 -13.903953 -19.704427 -5.595567 10.488348 0.000000 0.000000 0.000000 7.125000 0.000000 0.000000 6.516812 41.018208 0.643061
-33.890809 15.474120 -5.977429 0.246431 -86.354913 19.456479 0.000000 0.000000 0.000000 -10.868351 -12.542774 -58.792123 10.096570 17.463770 59.810651 1.237170 -4.130017 -20.065840 0.025690 -1.034514 -2.843712 0.000000 0.000000 0.000000 14.293146 14.663038 -61.248173 -12.404383 -18.556401 67.265069 -2.083932 -1.156808 -27.743461 -0.127559 -2.302077 6.341194 2.558502 -1.481924 30.013292 0.018773 -1.935523 8.996595 -0.755921 -1.240237 -6.405120 2.726840 0.761000 3.153272 0.479352 0.648055 -27.613917 -0.289604 -0.467197 -9.149224 0.000000 0.000000 0.000000 8.588237 -6.902701 -35.492822 29.069575 -40.082426 10.805488 20.720713 -23.651179 -13.094799 0.000000 0.000000 0.000000 -7.125000 0.000000 0.000000 -6.067387 43.862161 -0.171021 0.000000 0.000000 0.000000 -4.728573 -7.985839 35.998198 -33.623943 -43.804112 -13.852074 -19.726446 -5.585731 10.465365 0.000000 0.000000 0.000000 7.125000 0.000000 0.000000 6.493773 40.996126 0.644251
-33.889519 15.472419 -5.974938 0.367206 -86.340252 19.316141 0.000000 0.000000 0.000000 -10.886152 -12.559374 -58.778072 10.100484 17.465962 59.823693 1.238862 -4.136401 -20.079394 0.025240 -1.024775 -2.816865 0.000000 0.000000 0.000000 14.256030 14.700994 -61.231849 -12.412807 -18.559803 67.291541 -2.089985 -1.213262 -27.803647 -0.123797 -2.268076 6.247254 2.568224 -1.470371 30.044583 0.008434 -1.919828 9.006766 -0.777813 -1.233175 -6.408264 2.754343 0.746011 3.142996 0.444030 0.621183 -27.605762 -0.304233 -0.478587 -9.144520 0.000000 0.000000 0.000000 8.589818 -6.897301 -35.433346 29.184505 -40.184038 10.879542 20.773435 -23.705928 -13.052049 0.000000 0.000000 0.000000 -7.125000 0.000000 0.000000 -6.011543 43.823132 -0.175243 0.000000 0.000000 0.000000 -4.674804 -8.000629 35.893170 -33.570271 -43.763798 -13.815000 -19.753256 -5.584079 10.449292 0.000000 0.000000 0.000000 7.125000 0.000000 0.000000 6.467665 40.981713 0.643960
-33.888730 15.468607 -5.972138 0.519514 -86.323778 19.139268 0.000000 0.000000 0.000000 -10.898811 -12.596402 -58.763839 10.110598 17.471614 59.857316 1.242883 -4.129873 -20.114099 0.024730 -1.016063 -2.792900 0.000000 0.000000 0.000000 14.199553 14.777811 -61.205400 -12.427071 -18.565414 67.336225 -2.101029 -1.277616 -27.900044 -0.120998 -2.242816 6.177322 2.585240 -1.458432 30.091375 -0.000076 -1.901298 9.017037 -0.802426 -1.224945 -6.418448 2.774558 0.738377 3.138307 0.403256 0.602381 -27.617579 -0.320119 -0.485523 -9.147723 0.000000 0.000000 0.000000 8.580883 -6.908150 -35.396877 29.262968 -40.253242 10.930181 20.826023 -23.725614 -13.000906 0.000000 0.000000 0.000000 -7.125000 0.000000 0.000000 -5.954293 43.775188 -0.180664 0.000000 0.000000 0.000000 -4.618589 -8.016322 35.787790 -33.521502 -43.727081 -13.781224 -19.811993 -5.597836 10.416767 0.000000 0.000000 0.000000 7.125000 0.000000 0.000000 6.410918 40.952850 0.642839
-33.887999 15.466200 -5.969298 0.908937 -86.305287 18.727951 0.000000 0.000000 0.000000 -10.923228 -12.656858 -58.732462 10.114595 17.473797 59.870682 1.247202 -4.108572 -20.153022 0.024299 -1.006388 -2.766267 0.000000 0.000000 0.000000 14.133045 14.838429 -61.174779 -12.437302 -18.569501 67.368505 -2.110904 -1.334046 -27.985641 -0.119098 -2.224385 6.126258 2.588694 -1.449894 30.138534 -0.009808 -1.890895 9.026908 -0.817806 -1.220498 -6.429306 2.776388 0.740707 3.145299 0.381991 0.600806 -27.640511 -0.327602 -0.484795 -9.157104 0.000000 0.000000 0.000000 8.563177 -6.921612 -35.362573 29.318138 -40.301634 10.965825 20.855115 -23.704465 -12.957575 0.000000 0.000000 0.000000 -7.125000 0.000000 0.000000 -5.919882 43.732676 -0.185803 0.000000 0.000000 0.000000 -4.564363 -8.040328 35.710250 -33.453634 -43.675750 -13.734354 -19.895532 -5.626717 10.361569 0.000000 0.000000 0.000000 7.125000 0.000000 0.000000 6.328767 40.902370 0.642401
-33.887059 15.467412 -5.966447 1.463082 -86.289934 18.160798 0.000000 0.000000 0.000000 -10.958690 -12.731402 -58.679987 10.104587 17.468213 59.837237 1.249120 -4.066279 -20.174950 0.023790 -0.995547 -2.736682 0.000000 0.000000 0.000000 14.067826 14.865111 -61.148158 -12.436676 -18.569208 67.366397 -2.114210 -1.385164 -28.025988 -0.116847 -2.203456 6.068363 2.581331 -1.442166 30.178162 -0.019218 -1.884656 9.037270 -0.825530 -1.217908 -6.435983 2.762165 0.749158 3.144630 0.371532 0.609158 -27.651788 -0.329461 -0.478433 -9.160747 0.000000 0.000000 0.000000 8.532047 -6.935054 -35.332622 29.361870 -40.340066 10.994179 20.880070 -23.668195 -12.900132 0.000000 0.000000 0.000000 -7.125000 0.000000 0.000000 -5.886697 43.674971 -0.193231 0.000000 0.000000 0.000000 -4.518202 -8.076196 35.649108 -33.368201 -43.611160 -13.675365 -19.913765 -5.642305 10.330490 0.000000 0.000000 0.000000 7.125000 0.000000 0.000000 6.307711 40.871317 0.645104
